<?xml version="1.0" encoding="UTF-8"?>
<svg version="1.1" xmlns="http://www.w3.org/2000/svg" width="2000" height="573">
<path d="M0 0 C0.7730115 -0.00175304 1.54602299 -0.00350607 2.34245908 -0.00531223 C4.91799238 -0.00994308 7.49346849 -0.0075143 10.06900406 -0.00507832 C11.94016638 -0.00694776 13.81132832 -0.00924899 15.68248963 -0.01194364 C20.81337648 -0.01805155 25.94424701 -0.01792923 31.07513666 -0.01674926 C36.61311372 -0.016545 42.15108558 -0.02206643 47.68906021 -0.02680683 C58.53478745 -0.03510834 69.38050926 -0.03786144 80.22623941 -0.03841921 C89.04313434 -0.03889459 97.86002748 -0.04095046 106.67692184 -0.04411983 C127.61360408 -0.05149257 148.55028534 -0.05764481 169.48696899 -0.05712128 C170.15616557 -0.0571057 170.82536214 -0.05709012 171.5148374 -0.05707407 C174.90640982 -0.05699096 178.29798224 -0.05689192 181.68955466 -0.05678936 C182.36310265 -0.05676942 183.03665063 -0.05674947 183.73060916 -0.05672892 C185.09268665 -0.05668848 186.45476413 -0.05664669 187.81684162 -0.05660353 C209.00541516 -0.05599087 230.1939727 -0.06349658 251.38254166 -0.07717609 C275.20186824 -0.0925478 299.02118439 -0.101129 322.84051728 -0.10021287 C335.44710025 -0.099881 348.05366516 -0.1026239 360.66024399 -0.11339092 C371.39343148 -0.12249927 382.12659274 -0.12466839 392.85978243 -0.1178815 C398.33374413 -0.11461805 403.80765549 -0.11455336 409.2816124 -0.12323475 C414.29784405 -0.13110826 419.31398553 -0.12965958 424.33021501 -0.12095062 C426.13972157 -0.11941752 427.94923489 -0.12122459 429.75873348 -0.12681069 C448.66328434 -0.18128088 465.56874782 1.10380378 479.94406509 14.97238445 C489.76560327 26.15071244 493.00949178 39.66106757 492.9672308 54.20101833 C492.96898383 54.97655233 492.97073687 55.75208633 492.97254303 56.55112135 C492.97718271 59.14124719 492.97474279 61.73131639 492.97230911 64.32144451 C492.97417811 66.20070607 492.97647917 68.07996724 492.97917444 69.9592278 C492.98528788 75.11710773 492.98515937 80.27497145 492.98398006 85.43285418 C492.98377594 90.99809646 492.9892959 96.56333355 492.99403763 102.12857342 C493.00234222 113.02958182 493.00509238 123.93058481 493.00565001 134.83159611 C493.00612525 143.69285994 493.00818043 152.55412198 493.01135063 161.41538525 C493.0187239 182.45325365 493.02487551 203.49112096 493.02435207 224.52899075 C493.02433649 225.20154427 493.02432092 225.8740978 493.02430487 226.56703174 C493.02422176 229.97567605 493.02412272 233.38432036 493.02402016 236.79296467 C493.02399024 237.80838577 493.02399024 237.80838577 493.02395972 238.84432043 C493.02391928 240.21327269 493.02387748 241.58222496 493.02383433 242.95117723 C493.02322165 264.24699011 493.03072724 285.54278707 493.04440689 306.83859539 C493.05977609 330.77436801 493.06835994 354.71012867 493.06744367 378.64590764 C493.06711171 391.3156308 493.06985843 403.985336 493.08062172 416.65505505 C493.08972693 427.44209411 493.09190178 438.22910706 493.0851123 449.0161483 C493.08184723 454.51833278 493.08178999 460.02046718 493.09046555 465.5226469 C493.09833193 470.56353831 493.09689764 475.60433992 493.08818141 480.64522913 C493.08664674 482.46484194 493.08846134 484.28446145 493.09404149 486.10406634 C493.14883704 505.24612104 491.51976603 520.89542461 477.77219009 535.29269695 C467.94053488 544.68465381 455.89643818 548.46500011 442.49981499 548.38311005 C441.31154079 548.38791976 441.31154079 548.38791976 440.09926105 548.39282665 C437.45847489 548.40109383 434.81791749 548.39521393 432.17712784 548.38933086 C430.25916628 548.39235304 428.34120592 548.39624286 426.42324769 548.40092343 C421.16306596 548.41120355 415.90295237 548.40902155 410.64276505 548.40474284 C404.9657607 548.40227566 399.28877277 548.41128967 393.61177444 548.41878033 C382.49399386 548.43152944 371.37623743 548.43332076 360.25845076 548.43098006 C351.22176168 548.42919703 342.18507993 548.43094624 333.14839172 548.43520451 C331.86224411 548.43579969 330.57609649 548.43639488 329.25097471 548.43700811 C326.63816656 548.43821986 324.02535841 548.43943399 321.41255026 548.44065049 C303.86967698 548.44843746 286.32680816 548.45235699 268.78393364 548.44833374 C267.75529593 548.44809918 267.75529593 548.44809918 266.70587766 548.44785987 C263.23032726 548.44705411 259.75477688 548.44620834 256.2792265 548.44534657 C255.58899378 548.44517548 254.89876107 548.4450044 254.18761221 548.44482812 C252.79179487 548.44448147 251.39597753 548.44413294 250.00016019 548.44378254 C228.28125045 548.43842534 206.56238132 548.44635661 184.84347916 548.46481609 C160.43159945 548.4855402 136.019751 548.49622696 111.60786092 548.49224061 C98.68610732 548.49032774 85.7643907 548.4928245 72.84264374 548.50695515 C61.84258944 548.51886262 50.84259491 548.52028089 39.8425398 548.50816498 C34.23108729 548.50227197 28.61974413 548.50118867 23.00829887 548.51316738 C17.86877105 548.52401115 12.72944406 548.52094062 7.58992569 548.5069057 C5.7333492 548.50425465 3.87675705 548.5066381 2.02019592 548.51464156 C-13.44924872 548.57668589 -28.50033655 547.01155936 -40.43874741 535.9762907 C-50.36991792 525.32449104 -55.32806599 513.81010829 -55.29283142 499.28483772 C-55.29488405 498.4975699 -55.29693669 497.71030207 -55.29905152 496.89917764 C-55.30472313 494.25107382 -55.30326407 491.60302198 -55.30184555 488.95491314 C-55.3044291 487.0411174 -55.30744223 485.12732219 -55.31084895 483.21352774 C-55.31892352 477.94625733 -55.32070878 472.67900055 -55.32144642 467.41172469 C-55.3232962 461.73395301 -55.33084319 456.05618842 -55.33758163 450.37842083 C-55.35116911 437.95888674 -55.35719043 425.53935587 -55.36159229 413.11981559 C-55.36435423 405.36550214 -55.36859151 397.61118993 -55.37309647 389.85687733 C-55.38529007 368.38935525 -55.39562432 346.9218348 -55.39897156 325.45430946 C-55.39919319 324.06618332 -55.39941497 322.67805718 -55.39963691 321.28993103 C-55.39985755 319.89847164 -55.40007803 318.50701224 -55.40029836 317.11555284 C-55.40074091 314.32409632 -55.40118802 311.5326398 -55.40163803 308.74118328 C-55.40174742 308.04906497 -55.40185681 307.35694666 -55.40196952 306.64385506 C-55.40559921 284.20779138 -55.42151586 261.77176002 -55.44482839 239.33570871 C-55.46943719 215.6086926 -55.48313818 191.88169869 -55.48433948 168.15466887 C-55.48525621 155.2233189 -55.49100806 142.29201126 -55.50915909 129.36067295 C-55.52456175 118.3484771 -55.52967956 107.33633665 -55.52142099 96.32413208 C-55.517515 90.70650477 -55.51844171 85.08898903 -55.53247833 79.47137547 C-55.5452201 74.32485571 -55.54401717 69.17853132 -55.53188762 64.03201181 C-55.52993111 62.17395012 -55.53300691 60.31587457 -55.54173198 58.45783233 C-55.61996568 40.66569075 -53.24721195 26.89177663 -40.68093491 13.4919157 C-28.96665639 2.50410407 -15.50563596 -0.04546134 0 0 Z M33.83859634 136.12863445 C30.22801753 141.41555342 29.21788745 145.71464254 29.83859634 152.12863445 C32.10042157 159.09064282 35.36900408 163.22411672 41.55734634 167.0700407 C45.85435556 169.06402957 50.05218905 169.25436899 54.73860168 169.26006222 C55.92736113 169.26390336 57.11612058 169.26774451 58.34090304 169.27170205 C59.64312218 169.27083557 60.94534132 169.26996909 62.28702164 169.26907635 C63.68735563 169.27166096 65.08768889 169.27467439 66.48802114 169.27807975 C70.33588767 169.28614165 74.18373555 169.28793887 78.03160954 169.28867722 C82.18170356 169.29052916 86.33178793 169.29807719 90.48187637 169.30481243 C99.55627402 169.31839022 108.63066724 169.32441952 117.70507336 169.32882309 C123.37152258 169.33158628 129.03797011 169.33582376 134.70441818 169.34032726 C150.39442081 169.35251888 166.08442206 169.36281862 181.77442932 169.36620235 C182.77847748 169.36642192 183.78252565 169.36664149 184.81699951 169.36686771 C185.82344219 169.36708598 186.82988487 169.36730426 187.86682582 169.36752915 C189.90624412 169.36797262 191.94566242 169.36841918 193.98508072 169.36886883 C195.5025118 169.36920097 195.5025118 169.36920097 197.05059806 169.36953983 C213.44333172 169.37348805 229.83602095 169.39094329 246.22873744 169.41422835 C263.06047567 169.43794398 279.8921916 169.45040429 296.72394681 169.45157027 C306.17373529 169.45248688 315.62346585 169.45823564 325.07323837 169.47638988 C333.11963986 169.49179367 341.16596552 169.49690966 349.21237895 169.48865178 C353.31677589 169.48474636 357.42102013 169.48566962 361.52539825 169.49970913 C365.28581829 169.51245433 369.04597098 169.51124522 372.80639067 169.49911842 C374.80470981 169.49623884 376.80303359 169.50809246 378.80131602 169.52054048 C386.72601278 169.47699233 394.12885769 169.21263406 400.43234634 163.97238445 C401.06140884 163.19894695 401.69047134 162.42550945 402.33859634 161.62863445 C402.98828384 160.85519695 403.63797134 160.08175945 404.30734634 159.28488445 C407.90450591 154.2194965 407.51037321 148.08404957 406.83859634 142.12863445 C404.52726708 136.17288561 400.45534717 132.33091181 395.05564487 129.04297668 C392.22907334 127.87725853 389.98598517 127.87667728 386.92831993 127.87415886 C385.10359144 127.86541057 385.10359144 127.86541057 383.24199975 127.85648555 C381.89017507 127.86011883 380.5383509 127.86394321 379.18652725 127.86793804 C377.75191863 127.86491834 376.31731163 127.86102977 374.88270748 127.85634547 C370.93555323 127.84603326 366.98848949 127.84825547 363.04132771 127.85252607 C358.7862914 127.85498747 354.53127721 127.84598641 350.27624893 127.83848858 C341.93812098 127.82572302 333.6000252 127.82395021 325.26188911 127.82628884 C318.4857158 127.82807016 311.70955227 127.82632636 304.93338013 127.8220644 C303.48805301 127.82117162 303.48805301 127.82117162 302.01352736 127.8202608 C300.05621188 127.81904907 298.0988964 127.81783494 296.14158092 127.81661842 C277.77527231 127.80573564 259.40898204 127.80790881 241.04267238 127.81400327 C224.23398815 127.81917256 207.42536187 127.80791797 190.6166891 127.78890505 C173.36575869 127.76954118 156.11485572 127.76126813 138.86391437 127.7650283 C129.17555579 127.76694262 119.48724653 127.76443041 109.79889679 127.75031376 C101.55072648 127.73841743 93.30263585 127.73697535 85.05446447 127.74910393 C80.84513768 127.75500505 76.63595676 127.75605812 72.42663956 127.74410152 C68.57381098 127.73328462 64.72125081 127.73629579 60.86843501 127.75036321 C59.47410995 127.75302176 58.07976415 127.7506074 56.68545939 127.74262735 C54.79051442 127.73253417 52.89549392 127.74272652 51.00055504 127.75390434 C49.94786025 127.75384933 48.89516546 127.75379431 47.81057084 127.75373763 C41.72225859 128.52174184 37.80576409 131.62536295 33.83859634 136.12863445 Z M33.96359634 262.06613445 C30.36448792 267.25308482 29.10412364 271.83315414 29.83859634 278.12863445 C32.65815421 285.66687386 35.78587804 290.19563966 43.13832474 293.70248127 C49.17793022 295.90292488 55.38030109 295.54222593 61.73044205 295.50958538 C63.14233035 295.51304533 64.55421594 295.51781216 65.96609592 295.52376711 C69.83198851 295.53626047 73.69765817 295.53011439 77.56355143 295.52080846 C81.7381238 295.51401146 85.91265825 295.52450242 90.08722305 295.53274822 C98.25972178 295.5460808 106.43213781 295.54320993 114.60463977 295.5345103 C121.24721756 295.5277323 127.88977219 295.52681754 134.53235245 295.53008175 C135.47813229 295.53054145 136.42391213 295.53100115 137.39835197 295.53147478 C139.31974785 295.53243396 141.24114373 295.5334066 143.1625396 295.53439255 C161.17508389 295.54294505 179.18758236 295.5331145 197.20011914 295.51699145 C212.65222563 295.5035884 228.10426451 295.50591653 243.55636978 295.51974773 C261.50491798 295.53580601 279.45342602 295.54212109 297.4019804 295.53291094 C299.31626701 295.53195531 301.23055362 295.53101219 303.14484024 295.53008175 C304.08668035 295.52961892 305.02852047 295.5291561 305.99890119 295.52867924 C312.63270139 295.5260901 319.26647611 295.53045873 325.90027237 295.53752041 C333.98580053 295.54593834 342.07124133 295.54364908 350.1567595 295.52767818 C354.28129779 295.51979942 358.40569048 295.5166971 362.53022766 295.52662563 C366.3077589 295.53558126 370.0850099 295.53062553 373.86251581 295.51469298 C375.87235666 295.50976769 377.88221705 295.51953393 379.89203739 295.52986467 C387.49797881 295.48037426 393.76132469 295.12621048 400.08078384 290.48019695 C400.88902603 289.62554852 400.88902603 289.62554852 401.71359634 288.75363445 C402.26789322 288.18902508 402.82219009 287.6244157 403.39328384 287.04269695 C407.66548479 281.38491732 407.70400722 274.93712209 406.83859634 268.12863445 C404.49869421 262.14351287 400.36860557 257.80860026 394.55810386 255.04332584 C391.4906257 254.01159644 389.06023353 253.87459285 385.8264761 253.86857224 C384.61271618 253.86150664 383.39895626 253.85444105 382.14841574 253.84716135 C380.80484179 253.84941262 379.46126814 253.8518591 378.11769485 253.85447979 C376.68777254 253.85002688 375.2578527 253.84471266 373.82793647 253.83861107 C369.89831299 253.82442714 365.96876859 253.82276785 362.03912318 253.82320797 C357.80110132 253.82156013 353.56311208 253.80849429 349.32510757 253.79701519 C340.05863357 253.77416437 330.79218247 253.76624463 321.52568412 253.76118875 C315.73997325 253.75793211 309.95426904 253.75140987 304.16856194 253.74418736 C288.1500072 253.72462206 272.13145865 253.70821719 256.1128912 253.70531082 C255.08781819 253.70512325 254.06274519 253.70493568 253.00660937 253.70474243 C250.92853725 253.70437618 248.85046513 253.70401248 246.77239301 253.70365132 C245.74083435 253.70346851 244.70927569 253.70328569 243.64645767 253.70309734 C242.61364034 253.70291679 241.580823 253.70273625 240.51670817 253.70255022 C223.77730259 253.69900775 207.03802558 253.6719805 190.29866459 253.63459945 C173.11323218 253.59652928 155.92786359 253.57715344 138.74238807 253.57685131 C129.09305966 253.57626648 119.44388467 253.56775806 109.79459572 253.53885365 C101.57904417 253.51435713 93.36370201 253.50704522 85.14812382 253.52210117 C80.95666822 253.52927695 76.76562623 253.52838414 72.57421684 253.50569057 C68.73535725 253.48510496 64.89722935 253.48769631 61.05837772 253.50856542 C59.67144372 253.51206116 58.28445698 253.50714651 56.89759215 253.49286098 C47.04775089 253.39795985 40.70241226 254.68184715 33.96359634 262.06613445 Z M33.02609634 389.33957195 C29.91037062 394.03365874 29.27585367 398.59499817 29.83859634 404.12863445 C31.74810487 410.66898702 34.94353866 415.57528941 40.83859634 419.12863445 C45.00217485 420.73483113 48.45842415 421.37938213 52.91129494 421.38311005 C54.11311232 421.38894224 55.3149297 421.39477443 56.55316579 421.40078336 C57.86482705 421.39700404 59.17648831 421.39322471 60.52789688 421.38933086 C61.94218225 421.39235246 63.35646598 421.39624198 64.77074683 421.40092343 C68.65251384 421.41121119 72.53418857 421.40901963 76.41596317 421.40474284 C80.60419907 421.40227702 84.79241267 421.41128799 88.98064041 421.41878033 C97.18414272 421.43153346 105.3876123 421.43332024 113.59112285 421.43098006 C120.25901227 421.4291974 126.92689174 421.43094544 133.59477997 421.43520451 C134.54360615 421.43579969 135.49243233 421.43639488 136.47001082 421.43700811 C138.39752677 421.43821985 140.32504272 421.43943399 142.25255866 421.44065049 C160.33137033 421.45152843 178.41016335 421.44936235 196.48897608 421.44326564 C213.02782156 421.4380965 229.56660814 421.4493514 246.10544197 421.46836386 C263.08750249 421.48773618 280.06953513 421.49599931 297.05160677 421.49224061 C306.58573954 421.49032761 316.11982217 421.4928257 325.65394592 421.50695515 C333.77062488 421.5188622 341.88722284 421.52028144 350.0039029 421.50816498 C354.14463318 421.50227149 358.28521528 421.50118981 362.42593575 421.51316738 C366.21834332 421.52400987 370.01047869 421.52094242 373.80287345 421.5069057 C375.82076776 421.50300055 377.8386741 421.51381922 379.85654008 421.52520257 C387.91770648 421.47707369 394.32616445 421.17274209 400.65109634 415.69113445 C405.94883166 409.48521594 407.26760214 405.4096677 407.17844009 397.20675945 C406.57171531 391.71136718 404.15928822 388.15987461 400.05344009 384.56613445 C395.31935299 381.02813305 391.87959527 380.00432007 386.08818913 379.99441338 C384.27874749 379.98772661 384.27874749 379.98772661 382.43275148 379.98090476 C381.08722356 379.98099406 379.74169565 379.98118392 378.39616776 379.98146343 C376.97209818 379.97816473 375.54802955 379.97443915 374.1239621 379.97032195 C370.20123911 379.96029452 366.27853141 379.95658397 362.35579741 379.95393264 C358.12865715 379.9500318 353.90152903 379.94045331 349.67439651 379.93171978 C339.46121045 379.91194921 329.24802339 379.90188843 319.03482297 379.89299199 C314.22671413 379.88861008 309.4186064 379.88324302 304.61049843 379.87800312 C288.62976974 379.86099029 272.64904175 379.84649572 256.6683054 379.83925438 C252.52039781 379.83734445 248.37249023 379.83542412 244.22458267 379.83346844 C243.19362495 379.8329847 242.16266723 379.83250096 241.10046836 379.83200256 C224.39652497 379.82370078 207.69265315 379.79836162 190.98874102 379.76588776 C173.84405783 379.7328284 156.69941102 379.71480664 139.55469579 379.71161014 C129.92659549 379.70944401 120.29859958 379.70068027 110.67053032 379.67514896 C102.47142545 379.65345731 94.27245032 379.64538398 86.07332001 379.65511575 C81.89003119 379.6596649 77.70701014 379.6577386 73.52375793 379.6383543 C69.69231379 379.62075356 65.86133334 379.62169493 62.02988448 379.63725159 C60.64558232 379.63963239 59.26124831 379.63527957 57.87699489 379.62342294 C47.35052077 379.53886205 39.80743489 380.67862327 33.02609634 389.33957195 Z " fill="#FEA704" transform="translate(73.16140365600586,20.871365547180176)"/>
<path d="M0 0 C17.63806846 -0.06788291 35.27602435 -0.123078 52.91418743 -0.15543652 C61.10503016 -0.17086462 69.29578559 -0.19187594 77.48657227 -0.22631836 C84.63082705 -0.25634561 91.77501857 -0.27560444 98.91933471 -0.28226548 C102.6975255 -0.28615533 106.47553538 -0.2952109 110.25366783 -0.31719017 C113.82004577 -0.3377667 117.38617072 -0.34379179 120.95260239 -0.33932304 C122.86454776 -0.34052376 124.77646648 -0.35655393 126.68833923 -0.3732605 C137.22615127 -0.33613637 149.91345298 0.37444378 158 8 C167.59490916 19.81105616 166.47844143 37.11534632 166.39111328 51.42260742 C166.37501194 54.56017408 166.3910444 57.69645636 166.41015625 60.83398438 C166.44303396 89.57735401 166.44303396 89.57735401 156 101 C150.75317594 106.04603547 145.1308121 110.07928481 138.9375 113.875 C138.11838135 114.38385742 137.2992627 114.89271484 136.45532227 115.41699219 C133.97531977 116.95313646 131.48846393 118.47761041 129 120 C128.23945312 120.46889648 127.47890625 120.93779297 126.6953125 121.42089844 C124.61321292 122.70368666 122.52677577 123.97894005 120.4375 125.25 C119.81286865 125.63269043 119.1882373 126.01538086 118.54467773 126.40966797 C114.23493251 129 114.23493251 129 112 129 C119.32607844 141.33772855 126.80725409 153.55913813 134.51318359 165.66308594 C136.95410316 169.49961831 139.38382399 173.34320891 141.8125 177.1875 C142.30194092 177.96206543 142.79138184 178.73663086 143.2956543 179.53466797 C147.95132568 186.90970704 152.57781437 194.30291578 157.19335938 201.703125 C160.52189414 207.03972751 163.86086637 212.36930493 167.21875 217.6875 C167.90412842 218.77587158 168.58950684 219.86424316 169.2956543 220.9855957 C170.61157474 223.07472493 171.93060659 225.16189849 173.25317383 227.24682617 C173.84638428 228.19017822 174.43959473 229.13353027 175.05078125 230.10546875 C175.57325439 230.93199951 176.09572754 231.75853027 176.6340332 232.61010742 C178 235 178 235 180 240 C186.6 240 193.2 240 200 240 C200 248.25 200 256.5 200 265 C176.9 265 153.8 265 130 265 C130 256.75 130 248.5 130 240 C135.61 239.67 141.22 239.34 147 239 C138.6045899 225.32022533 130.18278713 211.65935088 121.65698242 198.06030273 C116.97756228 190.58760227 112.35775381 183.07955292 107.75 175.5625 C101.64639871 165.61014043 95.41314183 155.75558439 89 146 C85.63686278 147.27106912 82.59999647 148.7171214 79.5234375 150.57421875 C78.68683594 151.07759766 77.85023438 151.58097656 76.98828125 152.09960938 C76.12589844 152.62361328 75.26351562 153.14761719 74.375 153.6875 C73.53582031 154.19216797 72.69664062 154.69683594 71.83203125 155.21679688 C70.15516305 156.22931806 68.48922682 157.26022053 66.83610535 158.31106567 C64 160 64 160 61.1242218 161.26205444 C57.82905737 162.86727563 55.53450995 164.33474596 53 167 C51.38924608 172.54381389 51.57468213 177.92098421 51.70703125 183.65234375 C51.70510769 185.27902979 51.69833541 186.90571667 51.68693542 188.53236389 C51.669991 192.79637992 51.7185618 197.05718695 51.78112793 201.32067871 C51.8333657 205.6779589 51.82317933 210.03505357 51.81835938 214.39257812 C51.81806053 222.92963883 51.89279311 231.46361177 52 240 C59.59 240 67.18 240 75 240 C75 248.25 75 256.5 75 265 C50.25 265 25.5 265 0 265 C0 256.75 0 248.5 0 240 C7.26 240 14.52 240 22 240 C22 169.05 22 98.1 22 25 C14.74 25 7.48 25 0 25 C0 16.75 0 8.5 0 0 Z M52 25 C52 61.96 52 98.92 52 137 C58.7784968 133.61742704 58.7784968 133.61742704 65.22265625 129.8203125 C66.16109375 129.22863281 67.09953125 128.63695312 68.06640625 128.02734375 C69.54947266 127.08568359 69.54947266 127.08568359 71.0625 126.125 C79.16893782 121.01615159 87.30278465 115.96192085 95.5 111 C106.48296117 104.34420758 117.37783152 97.55157163 128.25366211 90.72241211 C131 89 131 89 133.07778931 88.15428162 C135.55684298 87.00259107 137.1588075 86.03393264 139 84 C140.13740965 79.53932653 139.93132137 75.18279329 139.78125 70.60546875 C139.77319336 69.45067017 139.76513672 68.29587158 139.75683594 67.1060791 C139.71503154 62.799238 139.60333838 58.49330411 139.5 54.1875 C139.335 44.555625 139.17 34.92375 139 25 C110.29 25 81.58 25 52 25 Z " fill="#FEA804" transform="translate(703,298)"/>
<path d="M0 0 C17.63806846 -0.06788291 35.27602435 -0.123078 52.91418743 -0.15543652 C61.10503016 -0.17086462 69.29578559 -0.19187594 77.48657227 -0.22631836 C84.63082705 -0.25634561 91.77501857 -0.27560444 98.91933471 -0.28226548 C102.6975255 -0.28615533 106.47553538 -0.2952109 110.25366783 -0.31719017 C113.82004577 -0.3377667 117.38617072 -0.34379179 120.95260239 -0.33932304 C122.86454776 -0.34052376 124.77646648 -0.35655393 126.68833923 -0.3732605 C137.98132121 -0.33347595 150.56119119 0.64927897 159 9 C165.81059804 18.53818399 166.31109665 30.27966022 166.30078125 41.625 C166.30506638 42.69314941 166.3093515 43.76129883 166.31376648 44.86181641 C166.3194694 47.10383398 166.32004014 49.34587005 166.31567383 51.58789062 C166.31250818 54.99120968 166.33604459 58.39366261 166.36132812 61.796875 C166.36360118 63.98958225 166.36430459 66.18229181 166.36328125 68.375 C166.372491 69.37740723 166.38170074 70.37981445 166.39118958 71.41259766 C166.31283152 83.54853113 163.22355163 93.02443588 155.125 102.1015625 C147.37117472 109.71692661 137.7819366 114.94263993 128.515625 120.49023438 C125.05420769 122.56762225 121.62045599 124.68855167 118.1875 126.8125 C116.45852178 127.87530663 114.7294425 128.93794904 113 130 C116.70466749 137.23738839 120.89055301 144.03429935 125.33935547 150.82836914 C129.45582282 157.12586833 133.45948971 163.48925995 137.4375 169.875 C141.93795667 177.09642632 146.44787779 184.31101541 151 191.5 C154.92926658 197.70618161 158.83596052 203.92586748 162.71777344 210.16186523 C164.02091283 212.24627449 165.33265059 214.32533514 166.65332031 216.39868164 C169.39942175 220.7222783 172.06898918 224.97965386 174.28515625 229.6015625 C176.13418671 233.30910794 177.7939089 236.26041574 181 239 C187.33623272 240.86736023 193.40615806 240.2766647 200 240 C200 248.25 200 256.5 200 265 C176.9 265 153.8 265 130 265 C130 256.75 130 248.5 130 240 C135.94 240 141.88 240 148 240 C147.1028125 238.56914063 146.205625 237.13828125 145.28125 235.6640625 C138.41326811 224.69893244 131.58050826 213.71466471 124.8125 202.6875 C120.22934007 195.22304152 115.62532428 187.77422935 110.9375 180.375 C110.4741626 179.64313477 110.0108252 178.91126953 109.53344727 178.15722656 C108.56585677 176.62933021 107.59816149 175.10150021 106.63037109 173.57373047 C106.09234863 172.72439941 105.55432617 171.87506836 105 171 C104.02474365 169.46110107 104.02474365 169.46110107 103.02978516 167.89111328 C100.93192781 164.57611893 98.84045899 161.25716362 96.75 157.9375 C96.080896 156.88288574 95.41179199 155.82827148 94.72241211 154.74169922 C94.10760986 153.76346191 93.49280762 152.78522461 92.859375 151.77734375 C92.30733398 150.90327881 91.75529297 150.02921387 91.18652344 149.12866211 C90 147 90 147 90 145 C82.17470191 149.17066822 74.55647115 153.61195789 67 158.25 C65.97777344 158.87390625 64.95554687 159.4978125 63.90234375 160.140625 C58.40586082 163.4990424 58.40586082 163.4990424 53 167 C52.51995562 170.15263518 52.51995562 170.15263518 52.56762695 173.92822266 C52.5574353 174.64052536 52.54724365 175.35282806 52.53674316 176.0867157 C52.50649972 178.44591012 52.49733033 180.80469932 52.48828125 183.1640625 C52.4714429 184.79789593 52.45329381 186.43171634 52.43388367 188.06552124 C52.38628555 192.36942476 52.35653993 196.6732755 52.33044434 200.97735596 C52.30068807 205.36782254 52.25414093 209.75810708 52.20898438 214.1484375 C52.12283961 222.76555097 52.05709573 231.38264503 52 240 C59.59 240 67.18 240 75 240 C75 248.25 75 256.5 75 265 C65.36886982 265.02255209 55.73775705 265.0409157 46.10660648 265.05181217 C41.63494451 265.05704074 37.16330147 265.06413789 32.69165039 265.07543945 C28.37988027 265.08626929 24.06812841 265.09227704 19.75634575 265.09487724 C18.10763702 265.09673132 16.45892934 265.1003516 14.81022835 265.10573006 C12.50896128 265.11294178 10.2077706 265.11399089 7.90649414 265.11352539 C6.5941127 265.115746 5.28173126 265.11796661 3.92958069 265.12025452 C1 265 1 265 0 264 C-0.08726223 262.21928754 -0.10699041 260.4351686 -0.09765625 258.65234375 C-0.09443359 257.57275391 -0.09121094 256.49316406 -0.08789062 255.38085938 C-0.07951172 254.24455078 -0.07113281 253.10824219 -0.0625 251.9375 C-0.05798828 250.79732422 -0.05347656 249.65714844 -0.04882812 248.48242188 C-0.0369976 245.65492582 -0.0190615 242.82745655 0 240 C7.59 240 15.18 240 23 240 C23 169.05 23 98.1 23 25 C15.41 25 7.82 25 0 25 C0 16.75 0 8.5 0 0 Z M52 25 C52 61.96 52 98.92 52 137 C55.72274457 135.51090217 58.51158062 134.18679482 61.82421875 132.0859375 C62.75669434 131.49820557 63.68916992 130.91047363 64.64990234 130.30493164 C65.65230957 129.6680542 66.6547168 129.03117676 67.6875 128.375 C69.86016349 127.00569516 72.03335862 125.63723358 74.20703125 124.26953125 C74.76664551 123.9169072 75.32625977 123.56428314 75.90283203 123.20097351 C81.86739151 119.44563468 87.86895293 115.75105579 93.875 112.0625 C94.93976563 111.40773682 96.00453125 110.75297363 97.1015625 110.07836914 C102.18810795 106.9515634 107.27735918 103.8292368 112.37084961 100.71376038 C114.74068148 99.26372891 117.10933089 97.81177255 119.47784424 96.35958862 C121.13818737 95.34270181 122.80026915 94.32865551 124.46240234 93.31469727 C125.47898926 92.69135498 126.49557617 92.0680127 127.54296875 91.42578125 C128.43008545 90.88348877 129.31720215 90.34119629 130.23120117 89.7824707 C131.14490479 89.19425537 132.0586084 88.60604004 133 88 C133.61779831 87.71541428 134.23559662 87.43082855 134.87211609 87.13761902 C137.0923773 85.95241387 138.44182106 84.99005206 140 83 C140.98851333 78.60847919 140.81441325 74.30548575 140.68359375 69.82421875 C140.67301941 68.12150818 140.67301941 68.12150818 140.66223145 66.38439941 C140.62565775 62.15159472 140.52792679 57.91949672 140.4375 53.6875 C140.2209375 39.4871875 140.2209375 39.4871875 140 25 C110.96 25 81.92 25 52 25 Z " fill="#FDA704" transform="translate(1778,298)"/>
<path d="M0 0 C17.49041402 -0.06790568 34.98071429 -0.12309112 52.47122383 -0.15543652 C60.59365711 -0.17085894 68.71600224 -0.19185919 76.83837891 -0.22631836 C83.92367964 -0.25636322 91.00891649 -0.27560855 98.09427917 -0.28226548 C101.84064455 -0.28615239 105.58682727 -0.29518874 109.3331337 -0.31719017 C112.87078812 -0.33779476 116.40818741 -0.34378634 119.94589615 -0.33932304 C121.83975763 -0.34052143 123.73359235 -0.35653655 125.62738037 -0.3732605 C136.39613878 -0.33509324 148.27986505 0.44400597 157.1640625 7.1484375 C166.02914284 16.08896533 166.3115464 29.78499924 166.30078125 41.625 C166.30506638 42.69314941 166.3093515 43.76129883 166.31376648 44.86181641 C166.3194694 47.10383398 166.32004014 49.34587005 166.31567383 51.58789062 C166.31250818 54.99120968 166.33604459 58.39366261 166.36132812 61.796875 C166.36360118 63.98958225 166.36430459 66.18229181 166.36328125 68.375 C166.372491 69.37740723 166.38170074 70.37981445 166.39118958 71.41259766 C166.31283152 83.54853113 163.22355163 93.02443588 155.125 102.1015625 C147.37117472 109.71692661 137.7819366 114.94263993 128.515625 120.49023438 C125.67244039 122.19658663 122.8474311 123.93063502 120.02734375 125.67480469 C117.68790002 127.12143523 115.34391817 128.56063345 113 130 C116.99106898 137.59771086 121.36430474 144.80110684 126.125 151.9375 C130.93292251 159.22282093 135.61676886 166.55043547 140.0625 174.0625 C145.92207339 183.95757047 152.08632128 193.6430946 158.29052734 203.32470703 C160.4717136 206.73822303 162.63568532 210.16230215 164.79125977 213.59204102 C165.79458952 215.18020365 166.80663589 216.7628974 167.82788086 218.33959961 C170.12786409 221.90558658 172.25897456 225.42115632 174.078125 229.2578125 C175.98121123 233.07804718 177.75139489 236.12623394 181 239 C187.31044111 240.91075311 193.43165336 240.27559496 200 240 C200 248.25 200 256.5 200 265 C176.9 265 153.8 265 130 265 C130 256.75 130 248.5 130 240 C135.61 239.67 141.22 239.34 147 239 C140.72373376 228.43940309 134.37870669 217.93622669 127.78417969 207.57104492 C123.45575657 200.75482235 119.22185163 193.88264058 115 187 C109.25095765 177.63088638 103.44284402 168.30322196 97.55078125 159.0234375 C97.13135254 158.36053711 96.71192383 157.69763672 96.27978516 157.01464844 C95.37941397 155.59727663 94.47220559 154.18423638 93.56005859 152.77441406 C93.10066895 152.05737305 92.6412793 151.34033203 92.16796875 150.6015625 C91.75184326 149.95783691 91.33571777 149.31411133 90.90698242 148.65087891 C90 147 90 147 90 145 C79.75301178 150.25548108 70.07292592 156.45391818 60.32080078 162.5612793 C58 164 58 164 55.39616394 165.14981079 C52.67919452 166.83124853 52.67919452 166.83124853 52.36076355 170.13212585 C52.35410172 171.42230118 52.34743988 172.7124765 52.34057617 174.04174805 C52.33009247 174.75419678 52.31960876 175.46664551 52.30880737 176.20068359 C52.28001309 178.55480264 52.2863532 180.90745486 52.29296875 183.26171875 C52.2798562 184.89412788 52.26455334 186.52652078 52.24714661 188.15888977 C52.20723109 192.45468674 52.19710202 196.75005995 52.19311523 201.04602051 C52.18379602 205.4299002 52.14639021 209.81352961 52.11132812 214.19726562 C52.04668537 222.79822412 52.01609586 231.39881348 52 240 C59.59 240 67.18 240 75 240 C75 248.25 75 256.5 75 265 C65.36886982 265.02255209 55.73775705 265.0409157 46.10660648 265.05181217 C41.63494451 265.05704074 37.16330147 265.06413789 32.69165039 265.07543945 C28.37988027 265.08626929 24.06812841 265.09227704 19.75634575 265.09487724 C18.10763702 265.09673132 16.45892934 265.1003516 14.81022835 265.10573006 C12.50896128 265.11294178 10.2077706 265.11399089 7.90649414 265.11352539 C6.5941127 265.115746 5.28173126 265.11796661 3.92958069 265.12025452 C1 265 1 265 0 264 C-0.08726223 262.21928754 -0.10699041 260.4351686 -0.09765625 258.65234375 C-0.09443359 257.57275391 -0.09121094 256.49316406 -0.08789062 255.38085938 C-0.07951172 254.24455078 -0.07113281 253.10824219 -0.0625 251.9375 C-0.05798828 250.79732422 -0.05347656 249.65714844 -0.04882812 248.48242188 C-0.0369976 245.65492582 -0.0190615 242.82745655 0 240 C7.59 240 15.18 240 23 240 C23 169.05 23 98.1 23 25 C15.41 25 7.82 25 0 25 C0 16.75 0 8.5 0 0 Z M52 25 C52 61.96 52 98.92 52 137 C55.48028085 135.60788766 58.0873538 134.45887595 61.16796875 132.5234375 C61.96525391 132.02585937 62.76253906 131.52828125 63.58398438 131.015625 C64.44314453 130.47421875 65.30230469 129.9328125 66.1875 129.375 C68.07653601 128.19485312 69.96587284 127.01518767 71.85546875 125.8359375 C72.85368652 125.21170898 73.8519043 124.58748047 74.88037109 123.94433594 C80.23839913 120.60489821 85.62032763 117.3044113 91 114 C116.7590597 100.1792111 116.7590597 100.1792111 140 83 C140.09376053 81.18944975 140.1174411 79.37522799 140.11352539 77.56225586 C140.11334412 75.79609924 140.11334412 75.79609924 140.11315918 73.9942627 C140.10804321 72.74705444 140.10292725 71.49984619 140.09765625 70.21484375 C140.09664917 69.07567505 140.09564209 67.93650635 140.09460449 66.76281738 C140.08935338 62.48770142 140.07539227 58.21259975 140.0625 53.9375 C140.041875 44.388125 140.02125 34.83875 140 25 C110.96 25 81.92 25 52 25 Z " fill="#FDA804" transform="translate(1133,4)"/>
<path d="M0 0 C10.63187067 -0.06798986 21.26359508 -0.12293915 31.89563465 -0.15543652 C36.8334192 -0.1710398 41.77104628 -0.19217975 46.70874023 -0.22631836 C51.48092365 -0.25910321 56.25295634 -0.27689308 61.02524376 -0.28463173 C62.83875587 -0.2901411 64.65226047 -0.30089885 66.46570778 -0.31719017 C92.85865855 -0.54469468 92.85865855 -0.54469468 102.65234375 8.53125 C110.88627242 17.38926618 110.46719541 27.37255333 110.51171875 38.75 C110.52858421 40.37525778 110.54673694 42.00050267 110.56611633 43.62573242 C110.61342004 47.88022837 110.64335584 52.13467201 110.66955566 56.38934326 C110.69946082 60.74013595 110.7459567 65.09074878 110.79101562 69.44140625 C110.87682512 77.96084871 110.94426915 86.48030791 111 95 C111.60550186 94.7178212 112.21100372 94.4356424 112.83485413 94.14491272 C113.63580002 93.77877365 114.43674591 93.41263458 115.26196289 93.03540039 C116.44865318 92.48838219 116.44865318 92.48838219 117.65931702 91.93031311 C123.94109437 89.43359746 131.58826681 89.98812113 137.9765625 91.8828125 C144.18318757 94.71423361 148.93096221 98.6566357 151.89284706 104.87428188 C154.34618173 111.61344715 154.4242346 117.98745207 154.38818359 125.10375977 C154.39606903 127.03229294 154.39606903 127.03229294 154.40411377 128.99978638 C154.41770297 132.5018327 154.41252421 136.00361166 154.40297651 139.5056622 C154.39533767 143.18411514 154.40243703 146.86254645 154.40713501 150.54100037 C154.41257965 156.71511918 154.4054343 162.88913003 154.39111328 169.06323242 C154.37478195 176.18596782 154.38008388 183.30844563 154.3965925 190.43117481 C154.41023568 196.5647862 154.41211345 202.69832035 154.40427649 208.83194202 C154.39961642 212.48740065 154.39892909 216.14273845 154.40888596 219.79818916 C154.41921459 223.87415793 154.40487218 227.94968708 154.38818359 232.02563477 C154.39729263 233.82675468 154.39729263 233.82675468 154.40658569 235.66426086 C154.34990298 243.14921296 153.90501033 249.37748712 149.0546875 255.42578125 C138.30824485 264.72780957 127.35045521 265.15627964 113.63891602 265.11352539 C112.40894394 265.11367142 111.17897186 265.11381744 109.91172791 265.1139679 C106.55685308 265.11339264 103.20204059 265.10839437 99.84717679 265.10139394 C96.33447534 265.09512175 92.82177296 265.09455355 89.30906677 265.09336853 C82.66525649 265.09026658 76.02146275 265.08206856 69.37765974 265.07201904 C61.81053364 265.06082255 54.24340674 265.05533855 46.67627442 265.05032361 C31.11750508 265.03988496 15.55875852 265.02155366 0 265 C0 256.75 0 248.5 0 240 C7.26 240 14.52 240 22 240 C22 169.05 22 98.1 22 25 C14.74 25 7.48 25 0 25 C0 16.75 0 8.5 0 0 Z M52 25 C52 60.31 52 95.62 52 132 C55.61382623 130.55446951 58.27942749 129.33001336 61.46875 127.28515625 C62.69658203 126.50301758 62.69658203 126.50301758 63.94921875 125.70507812 C65.21185547 124.89200195 65.21185547 124.89200195 66.5 124.0625 C68.1767929 122.99043103 69.85386803 121.91880332 71.53125 120.84765625 C72.26923828 120.37336182 73.00722656 119.89906738 73.76757812 119.41040039 C76 118 76 118 78.60404968 116.94949341 C81.41357517 115.10605547 81.41357517 115.10605547 81.60127258 111.2224884 C81.6157905 109.61425372 81.60241911 108.00562892 81.56762695 106.39770508 C81.56835709 105.51944565 81.56908722 104.64118622 81.56983948 103.73631287 C81.56635286 100.83009313 81.52744142 97.92547134 81.48828125 95.01953125 C81.47895694 93.00600561 81.47183902 90.99246864 81.46684265 88.97892761 C81.44774287 83.67677545 81.39861607 78.37530709 81.34332275 73.07342529 C81.29219469 67.66427868 81.26934237 62.25502167 81.24414062 56.84570312 C81.19050025 46.23011982 81.10253969 35.61522372 81 25 C71.43 25 61.86 25 52 25 Z M119.31640625 119.203125 C118.56399658 119.68241455 117.81158691 120.1617041 117.03637695 120.65551758 C116.21999756 121.18169678 115.40361816 121.70787598 114.5625 122.25 C112.81776781 123.36337445 111.07297453 124.47665319 109.328125 125.58984375 C107.99104492 126.44618408 107.99104492 126.44618408 106.62695312 127.31982422 C102.69834548 129.83252662 98.75603498 132.32331534 94.8125 134.8125 C93.66914185 135.53542236 93.66914185 135.53542236 92.50268555 136.27294922 C87.93894043 139.15575777 83.36568202 142.02283022 78.78515625 144.87890625 C77.72127686 145.54237061 76.65739746 146.20583496 75.5612793 146.8894043 C73.49454691 148.17733123 71.42704695 149.46402757 69.35864258 150.74926758 C67.92427856 151.64295044 67.92427856 151.64295044 66.4609375 152.5546875 C65.62353027 153.07530762 64.78612305 153.59592773 63.92333984 154.13232422 C62.47628662 155.05682373 62.47628662 155.05682373 61 156 C60.23685989 156.30940521 59.47371979 156.61881042 58.68745422 156.93759155 C55.7700597 158.3390566 54.05940062 159.48177946 52 162 C50.7053125 167.80581222 50.95147102 173.51163197 51.12109375 179.4296875 C51.13789188 181.14743714 51.15069738 182.86523006 51.15968323 184.58303833 C51.19395485 189.09200289 51.28227331 193.59833418 51.38201904 198.10626221 C51.49053091 203.5214699 51.53164232 208.93756112 51.58409882 214.35354614 C51.67121168 222.5708589 51.84367649 230.78240119 52 239 C76.09 239 100.18 239 125 239 C125 198.74 125 158.48 125 117 C122.44072599 117 121.46563651 117.82432435 119.31640625 119.203125 Z " fill="#FEA704" transform="translate(1359,4)"/>
<path d="M0 0 C17.36003026 -0.06790784 34.71994589 -0.12309237 52.0800724 -0.15543652 C60.14197189 -0.1708584 68.20378255 -0.19185761 76.265625 -0.22631836 C83.29818803 -0.25636489 90.33068668 -0.27560894 97.36331213 -0.28226548 C101.08173245 -0.28615212 104.79996871 -0.29518663 108.51832962 -0.31719017 C112.68498907 -0.341643 116.85133529 -0.3419603 121.01806641 -0.34057617 C122.23008224 -0.351362 123.44209808 -0.36214783 124.69084167 -0.3732605 C137.48633523 -0.32757964 150.84637742 1.25175136 160.6875 10.0625 C168.83159936 18.74582055 171.32062437 30.89514731 171.26069641 42.44245911 C171.26452196 43.2420584 171.26834751 44.0416577 171.27228898 44.86548728 C171.28252567 47.51822245 171.27864473 50.17073738 171.2746582 52.82348633 C171.27900989 54.73635557 171.28419455 56.64922308 171.29014587 58.56208801 C171.30349891 63.73990136 171.30411859 68.91764155 171.30158257 74.09546876 C171.30051022 78.42672232 171.30540306 82.75796123 171.310188 87.08921164 C171.3212707 97.31282223 171.32172774 107.53639608 171.31567383 117.76000977 C171.30963624 128.28630892 171.32194248 138.81247432 171.3432439 149.33875066 C171.36089206 158.39467969 171.36685613 167.45056628 171.36360615 176.50651187 C171.36179807 181.90702019 171.36438185 187.30743313 171.37832069 192.7079258 C171.39094656 197.78957583 171.38891006 202.87101828 171.37590981 207.95266533 C171.37355471 209.81013689 171.37624014 211.66762328 171.38453293 213.52507782 C171.44624145 228.42980398 170.6394519 241.92063945 160.4765625 253.77734375 C145.04003664 268.57381854 118.38032456 265.2861023 98.83323741 265.20278788 C95.34729363 265.19011274 91.86134474 265.18909702 88.37538147 265.18673706 C81.80271146 265.1805708 75.2301096 265.16422723 68.65746933 265.14403808 C61.16266871 265.12152603 53.66786449 265.11064755 46.17303836 265.10064721 C30.78197963 265.07985546 15.39101453 265.0432416 0 265 C0 256.75 0 248.5 0 240 C7.26 240 14.52 240 22 240 C22 169.05 22 98.1 22 25 C14.74 25 7.48 25 0 25 C0 16.75 0 8.5 0 0 Z M52 25 C52 95.95 52 166.9 52 240 C81.37 240 110.74 240 141 240 C141 169.05 141 98.1 141 25 C111.63 25 82.26 25 52 25 Z " fill="#FEA804" transform="translate(1359,298)"/>
<path d="M0 0 C54.78 0 109.56 0 166 0 C166 21.78 166 43.56 166 66 C157.75 66 149.5 66 141 66 C141 52.47 141 38.94 141 25 C111.63 25 82.26 25 52 25 C52 54.7 52 84.4 52 115 C68.17 115 84.34 115 101 115 C101 106.75 101 98.5 101 90 C109.25 90 117.5 90 126 90 C126 114.75 126 139.5 126 165 C117.75 165 109.5 165 101 165 C101 156.75 101 148.5 101 140 C84.83 140 68.66 140 52 140 C52 173 52 206 52 240 C81.37 240 110.74 240 141 240 C141 226.47 141 212.94 141 199 C149.25 199 157.5 199 166 199 C166 220.78 166 242.56 166 265 C111.22 265 56.44 265 0 265 C0 256.75 0 248.5 0 240 C7.26 240 14.52 240 22 240 C22 169.05 22 98.1 22 25 C14.74 25 7.48 25 0 25 C0 16.75 0 8.5 0 0 Z " fill="#FEA804" transform="translate(1573,298)"/>
<path d="M0 0 C54.78 0 109.56 0 166 0 C166 21.78 166 43.56 166 66 C157.75 66 149.5 66 141 66 C141 52.47 141 38.94 141 25 C111.63 25 82.26 25 52 25 C52 54.7 52 84.4 52 115 C68.17 115 84.34 115 101 115 C101 106.75 101 98.5 101 90 C109.25 90 117.5 90 126 90 C126 114.75 126 139.5 126 165 C117.75 165 109.5 165 101 165 C101 156.75 101 148.5 101 140 C84.83 140 68.66 140 52 140 C52 173 52 206 52 240 C81.37 240 110.74 240 141 240 C141 226.47 141 212.94 141 199 C149.25 199 157.5 199 166 199 C166 220.78 166 242.56 166 265 C111.22 265 56.44 265 0 265 C0 256.75 0 248.5 0 240 C7.26 240 14.52 240 22 240 C22 169.05 22 98.1 22 25 C14.74 25 7.48 25 0 25 C0 16.75 0 8.5 0 0 Z " fill="#FEA704" transform="translate(930,298)"/>
<path d="M0 0 C54.78 0 109.56 0 166 0 C166 21.78 166 43.56 166 66 C157.75 66 149.5 66 141 66 C141 52.47 141 38.94 141 25 C111.63 25 82.26 25 52 25 C52 54.7 52 84.4 52 115 C68.17 115 84.34 115 101 115 C101 106.75 101 98.5 101 90 C109.25 90 117.5 90 126 90 C126 114.75 126 139.5 126 165 C117.75 165 109.5 165 101 165 C101 156.75 101 148.5 101 140 C84.83 140 68.66 140 52 140 C52 173 52 206 52 240 C81.37 240 110.74 240 141 240 C141 226.47 141 212.94 141 199 C149.25 199 157.5 199 166 199 C166 220.78 166 242.56 166 265 C111.22 265 56.44 265 0 265 C0 256.75 0 248.5 0 240 C7.26 240 14.52 240 22 240 C22 169.05 22 98.1 22 25 C14.74 25 7.48 25 0 25 C0 16.75 0 8.5 0 0 Z " fill="#FEA705" transform="translate(928,4)"/>
<path d="M0 0 C14.19 0 28.38 0 43 0 C48.74230775 20.67230789 48.74230775 20.67230789 51.03588867 29.93237305 C51.30065537 30.99273144 51.56542208 32.05308983 51.83821201 33.14558029 C52.70033367 36.60041488 53.55913969 40.05606435 54.41796875 43.51171875 C55.03452856 45.98460298 55.65133542 48.45742563 56.26837158 50.93019104 C57.57101357 56.15200514 58.87239087 61.37413152 60.1725769 66.59655762 C63.38353695 79.49333108 66.60280154 92.38803329 69.82232022 105.28267241 C70.32830871 107.30932958 70.83421199 109.33600802 71.34010124 111.36268997 C77.99057337 138.00399983 84.71415958 164.62628361 91.48786926 191.23649597 C92.69179823 195.96784999 93.89380843 200.69968824 95.09442139 205.43188477 C95.72859541 207.93062531 96.36354886 210.4291586 96.99932861 212.92749023 C97.99483994 216.84117889 98.98396636 220.75645753 99.97265625 224.671875 C100.27755478 225.86822571 100.58245331 227.06457642 100.89659119 228.29718018 C101.17314041 229.39632751 101.44968964 230.49547485 101.73461914 231.62792969 C102.10231163 233.07990753 102.10231163 233.07990753 102.47743225 234.56121826 C103 237 103 237 103 240 C110.59 240 118.18 240 126 240 C126 248.25 126 256.5 126 265 C102.9 265 79.8 265 56 265 C56 256.75 56 248.5 56 240 C62.27 240 68.54 240 75 240 C74.48501953 237.98084473 73.97003906 235.96168945 73.43945312 233.88134766 C71.74093371 227.2202783 70.04503102 220.55854479 68.35042572 213.89647865 C67.32260807 209.85611835 66.29390201 205.81598855 65.26318359 201.77636719 C64.26907381 197.88008835 63.27727425 193.98322823 62.28709412 190.08594894 C61.90834793 188.59694728 61.52876067 187.1081593 61.14833069 185.61958694 C60.61686112 183.53942612 60.0883497 181.45853513 59.56054688 179.37744141 C59.2585437 178.19163483 58.95654053 177.00582825 58.64538574 175.78408813 C58 173 58 173 58 171 C33.91 171 9.82 171 -15 171 C-16.32 176.94 -17.64 182.88 -19 189 C-20.05643042 193.31245291 -21.12588663 197.61544229 -22.234375 201.9140625 C-22.51726379 203.02059174 -22.80015259 204.12712097 -23.09161377 205.2671814 C-23.97509558 208.72047216 -24.86245877 212.17275061 -25.75 215.625 C-26.35833333 217.99993331 -26.96640799 220.3749329 -27.57421875 222.75 C-29.0465044 228.5007668 -30.52226591 234.25063095 -32 240 C-25.73 240 -19.46 240 -13 240 C-13 248.25 -13 256.5 -13 265 C-36.1 265 -59.2 265 -83 265 C-83 256.75 -83 248.5 -83 240 C-75.41 240 -67.82 240 -60 240 C-59.67 237.36 -59.34 234.72 -59 232 C-58.43015584 229.40629397 -57.83047671 226.84874168 -57.16845703 224.27978516 C-56.89152071 223.18104317 -56.89152071 223.18104317 -56.60898972 222.06010437 C-55.99653789 219.63523077 -55.37722576 217.21216636 -54.7578125 214.7890625 C-54.31789379 213.05367862 -53.87837927 211.31819224 -53.4392395 209.58261108 C-52.25411477 204.90412284 -51.06286862 200.22721318 -49.87037659 195.55059814 C-48.86925809 191.62121469 -47.87178448 187.69090986 -46.87433624 183.76059341 C-39.80942299 155.92350992 -32.68194866 128.10244689 -25.52293682 100.28942871 C-19.57053932 77.16362503 -13.67497276 54.02376129 -7.8125 30.875 C-7.61205582 30.08353577 -7.41161163 29.29207153 -7.20509338 28.47662354 C-4.80141944 18.98491465 -2.40038022 9.49254304 0 0 Z M21 27 C20.72739853 28.08009842 20.45479706 29.16019684 20.17393494 30.27302551 C17.57226177 40.58086258 14.96965825 50.88846438 12.36620235 61.19585133 C11.02859845 66.49170118 9.69129378 71.78762617 8.35473633 77.08374023 C7.06264916 82.20351991 5.76987203 87.32312481 4.47642899 92.4425621 C3.96922108 94.45016743 3.46215851 96.45780947 2.95524216 98.46548843 C0.5622574 107.940581 -1.83371518 117.41443793 -4.30810547 126.86865234 C-4.64160507 128.14359055 -4.97510468 129.41852875 -5.31871033 130.73210144 C-5.9151208 133.00203712 -6.51491163 135.27108875 -7.11891174 137.53901672 C-7.49982216 138.98476326 -7.49982216 138.98476326 -7.88842773 140.4597168 C-8.1057103 141.27482224 -8.32299286 142.08992767 -8.54685974 142.92973328 C-9.1069091 145.13522369 -9.1069091 145.13522369 -9 148 C11.13 148 31.26 148 52 148 C48.72908245 133.2099936 48.72908245 133.2099936 45.15917969 118.50146484 C44.90500275 117.4942186 44.65082581 116.48697235 44.38894653 115.44920349 C43.56901787 112.20249516 42.74549971 108.95670997 41.921875 105.7109375 C41.34444026 103.42743529 40.76723492 101.14387506 40.19024658 98.86026001 C38.68668404 92.91197907 37.18005101 86.96448022 35.67272949 81.01715088 C34.12888609 74.92337079 32.58801371 68.82883957 31.046875 62.734375 C28.03412176 50.82218871 25.01811715 38.91082831 22 27 C21.67 27 21.34 27 21 27 Z " fill="#FEA804" transform="translate(1625,4)"/>
<path d="M0 0 C1.77206192 0.00015919 3.54412846 0.00585754 5.31616211 0.01586914 C6.24698105 0.01728409 7.17779999 0.01869904 8.13682556 0.02015686 C11.12241777 0.02577367 14.10793615 0.03832899 17.09350586 0.05102539 C19.11238499 0.05603823 21.13126529 0.06060151 23.15014648 0.06469727 C28.11046158 0.07574856 33.07072118 0.09302444 38.03100586 0.11352539 C41.15960136 8.82402593 43.28587293 17.77309837 45.50366211 26.74633789 C45.94278873 28.51136766 46.3822709 30.27630901 46.82208252 32.04116821 C47.759895 35.80679961 48.69566537 39.57292994 49.62979126 43.33947754 C51.86258043 52.3414611 54.10635735 61.3407084 56.34967613 70.34007263 C56.85737113 72.3769168 57.36494007 74.41379238 57.87238503 76.45069885 C62.46554981 94.88713616 67.11622956 113.30848627 71.79912186 131.72230911 C77.72857193 155.04451357 83.64040566 178.37122487 89.50204468 201.71057129 C90.26502816 204.74782617 91.03025417 207.78450182 91.79751587 210.82067871 C92.68724821 214.3418413 93.57249499 217.86410018 94.45418358 221.38728523 C94.93250696 223.29392331 95.41544862 225.19940092 95.89851379 227.10484314 C96.32302071 228.80719872 96.32302071 228.80719872 96.75610352 230.54394531 C97.003815 231.52892502 97.25152649 232.51390472 97.50674438 233.5287323 C98.03100586 236.11352539 98.03100586 236.11352539 98.03100586 240.11352539 C105.62100586 240.11352539 113.21100586 240.11352539 121.03100586 240.11352539 C121.03100586 248.36352539 121.03100586 256.61352539 121.03100586 265.11352539 C98.26100586 265.11352539 75.49100586 265.11352539 52.03100586 265.11352539 C52.03100586 256.86352539 52.03100586 248.61352539 52.03100586 240.11352539 C57.97100586 240.11352539 63.91100586 240.11352539 70.03100586 240.11352539 C64.42100586 217.67352539 58.81100586 195.23352539 53.03100586 172.11352539 C28.94100586 171.78352539 4.85100586 171.45352539 -19.96899414 171.11352539 C-20.62899414 174.74352539 -21.28899414 178.37352539 -21.96899414 182.11352539 C-22.44238162 184.23856351 -22.93697679 186.35914893 -23.46533203 188.47119141 C-23.7422438 189.58506729 -24.01915558 190.69894318 -24.30445862 191.84657288 C-24.5972319 193.00845627 -24.89000519 194.17033966 -25.19165039 195.36743164 C-25.49719345 196.59010239 -25.80273651 197.81277313 -26.11753845 199.07249451 C-26.92170395 202.28623973 -27.72915537 205.49913658 -28.53790283 208.71173096 C-29.19967674 211.34532433 -29.85703438 213.98001176 -30.5143671 216.61471653 C-31.30017223 219.76207094 -32.08975979 222.90847491 -32.87915039 226.05493164 C-33.17394791 227.23503311 -33.46874542 228.41513458 -33.7724762 229.6309967 C-34.04623581 230.71650314 -34.31999542 231.80200958 -34.60205078 232.92041016 C-34.84250626 233.87762466 -35.08296173 234.83483917 -35.33070374 235.82106018 C-35.96899414 238.11352539 -35.96899414 238.11352539 -36.96899414 240.11352539 C-30.69899414 240.11352539 -24.42899414 240.11352539 -17.96899414 240.11352539 C-17.96899414 248.36352539 -17.96899414 256.61352539 -17.96899414 265.11352539 C-40.73899414 265.11352539 -63.50899414 265.11352539 -86.96899414 265.11352539 C-86.96899414 256.86352539 -86.96899414 248.61352539 -86.96899414 240.11352539 C-79.70899414 240.11352539 -72.44899414 240.11352539 -64.96899414 240.11352539 C-64.7239917 238.64149658 -64.47898926 237.16946777 -64.2265625 235.65283203 C-62.80179649 227.83920036 -60.81027425 220.17573901 -58.84790039 212.48461914 C-58.43197575 210.84336203 -58.01635471 209.20202795 -57.60101318 207.56062317 C-56.48233547 203.14391618 -55.35891152 198.72842934 -54.23447037 194.31318665 C-53.28737012 190.5918039 -52.34308285 186.86970965 -51.39875317 183.14762306 C-44.49969046 155.95724622 -37.54074671 128.78224013 -30.54412174 101.61681557 C-26.26555581 85.00363808 -22.01595387 68.38365093 -17.81665039 51.75024414 C-17.39247737 50.07111203 -16.96828826 48.39198398 -16.54408264 46.71286011 C-14.71313723 39.46367324 -12.88417727 32.21400745 -11.06351757 24.96222973 C-10.32891004 22.03892171 -9.59157145 19.11630738 -8.85355949 16.19385719 C-8.51114378 14.83512999 -8.16999522 13.47608275 -7.83017159 12.11670494 C-7.36771964 10.26711566 -6.90067112 8.41867743 -6.43334961 6.5703125 C-6.17311005 5.5344249 -5.91287048 4.49853729 -5.64474487 3.43125916 C-4.51754166 -0.43489567 -4.40972608 0.12613167 0 0 Z M16.03100586 28.11352539 C15.78790176 29.07563431 15.54479767 30.03774323 15.29432678 31.02900696 C12.95802375 40.274753 10.62092921 49.52029869 8.28313541 58.76566792 C7.08242698 63.51425737 5.88196039 68.26290763 4.68212891 73.01171875 C3.29009367 78.52111386 1.89706494 84.03025727 0.50366211 89.53930664 C0.27485981 90.44430027 0.04605751 91.3492939 -0.18967819 92.28171158 C-2.66117067 102.05465638 -5.14555335 111.82399125 -7.66870117 121.58374023 C-7.88159192 122.40787887 -8.09448267 123.2320175 -8.31382465 124.08113003 C-9.316308 127.96030549 -10.32162755 131.83870901 -11.33177185 135.71589661 C-11.68430286 137.07653058 -12.03676963 138.4371812 -12.38916016 139.79785156 C-12.84912132 141.56451424 -12.84912132 141.56451424 -13.31837463 143.36686707 C-14.04582691 145.9674388 -14.04582691 145.9674388 -13.96899414 148.11352539 C6.16100586 148.11352539 26.29100586 148.11352539 47.03100586 148.11352539 C46.37601435 142.87359333 45.70754855 138.33596453 44.42382812 133.30664062 C44.26399948 132.67492604 44.10417084 132.04321146 43.9394989 131.39235401 C43.41338473 129.3177463 42.88044018 127.24496019 42.34741211 125.17211914 C41.97174235 123.69637571 41.59650248 122.22052278 41.22166443 120.74456787 C40.22360099 116.81978996 39.21958185 112.89656037 38.21405029 108.97369003 C37.17953272 104.93483477 36.14945991 100.89484612 35.11889648 96.85498047 C33.89332202 92.0520994 32.66701847 87.24940811 31.43789673 82.44743347 C29.16718058 73.57526166 26.91337929 64.69915656 24.68334961 55.81665039 C24.0050173 53.12607059 23.32597531 50.43567155 22.64645386 47.74539185 C22.2382039 46.12395103 21.83219474 44.50194428 21.42849731 42.87936401 C20.88561172 40.69926436 20.33446222 38.52142971 19.78100586 36.34399414 C19.48709961 35.17247803 19.19319336 34.00096191 18.89038086 32.79394531 C18.21881297 29.99635715 18.21881297 29.99635715 16.03100586 28.11352539 Z " fill="#FDA804" transform="translate(1208.968994140625,297.886474609375)"/>
<path d="M0 0 C21.78 0 43.56 0 66 0 C66 8.25 66 16.5 66 25 C60.06 25 54.12 25 48 25 C60.71443157 72.46190768 73.43332655 119.92262124 86.18362427 167.37490845 C87.26279528 171.39123729 88.34162113 175.40765859 89.4201355 179.42416382 C90.69436649 184.16940559 91.96938016 188.9144364 93.24498367 193.65930939 C93.7079152 195.38171855 94.17060308 197.10419321 94.63300705 198.82674408 C96.98095234 207.57249152 99.34689807 216.31318062 101.75268555 225.04321289 C101.96337331 225.81307998 102.17406107 226.58294706 102.39113331 227.37614346 C103.44711733 231.27920807 103.44711733 231.27920807 105 235 C108.61528934 221.48367886 112.22987999 207.96717095 115.84406281 194.45055389 C116.74649474 191.07560909 117.64897321 187.70067673 118.55145264 184.32574463 C125.7086293 157.55973986 132.85810275 130.79170074 139.9921875 104.01953125 C140.64212659 101.58075355 141.2920696 99.14197689 141.9420166 96.70320129 C144.76837408 86.09747401 147.5941462 75.49159184 150.41780663 64.88514614 C151.58039039 60.51885258 152.74370697 56.15275449 153.90719986 51.78670311 C154.44874948 49.75380629 154.98996186 47.7208196 155.53081894 45.68773842 C156.2679124 42.91708847 157.00613329 40.14674133 157.74462891 37.37646484 C158.06842844 36.15758371 158.06842844 36.15758371 158.39876938 34.91407871 C159.19944806 31.91424075 160.01788174 28.94635479 161 26 C154.07 25.67 147.14 25.34 140 25 C140 16.75 140 8.5 140 0 C162.77 0 185.54 0 209 0 C209 8.25 209 16.5 209 25 C202.4 25 195.8 25 189 25 C188.67 27.64 188.34 30.28 188 33 C187.72940007 34.32163148 187.43127415 35.63872839 187.07868958 36.94088745 C186.89880682 37.61570317 186.71892406 38.29051889 186.53359032 38.98578358 C186.33792788 39.69800918 186.14226543 40.41023478 185.94067383 41.14404297 C185.7315568 41.9223305 185.52243977 42.70061804 185.30698586 43.50249004 C184.61207133 46.08378749 183.9095494 48.66295002 183.20703125 51.2421875 C182.70777208 53.09092847 182.20901002 54.93980375 181.71070862 56.7888031 C180.64272905 60.74771019 179.57143648 64.70569978 178.49749756 68.66299438 C176.79526947 74.93560176 175.10036052 81.21017177 173.40673828 87.48510742 C171.66229333 93.94701061 169.91737276 100.40878324 168.16986084 106.86985779 C163.00325241 125.97257504 157.86915899 145.08391583 152.74603271 164.19833374 C151.38407142 169.27941906 150.02052344 174.36007779 148.65673828 179.44067383 C144.72286401 194.09762798 140.79472207 208.75604367 136.88996887 223.4207859 C135.6524564 228.06716465 134.41291035 232.71300167 133.17388916 237.35897827 C132.21347708 240.96496581 131.25678964 244.57192736 130.30029297 248.17895508 C129.73552986 250.29773634 129.17060006 252.41647317 128.60546875 254.53515625 C128.35247513 255.49419861 128.09948151 256.45324097 127.83882141 257.44134521 C127.60865829 258.30125061 127.37849518 259.16115601 127.14135742 260.04711914 C126.94346115 260.79240372 126.74556488 261.53768829 126.54167175 262.30555725 C126 264 126 264 125 265 C121.97022196 265.08871273 118.96332978 265.1151935 115.93359375 265.09765625 C115.02497086 265.0962413 114.11634796 265.09482635 113.18019104 265.09336853 C110.26592779 265.08775193 107.35174019 265.07519665 104.4375 265.0625 C102.46679798 265.05748714 100.49609476 265.05292386 98.52539062 265.04882812 C93.68356441 265.03777711 88.84179505 265.02050138 84 265 C77.48583417 243.46485046 71.81643682 221.70891 66.07975006 199.95710373 C63.79511713 191.29875518 61.50319356 182.64233109 59.21190262 173.98574257 C58.61564146 171.73298258 58.01948887 169.48019385 57.42344284 167.22737694 C52.78795074 149.70886488 48.11951469 132.19935284 43.4296875 114.6953125 C43.12124908 113.54376616 42.81281067 112.39221981 42.49502563 111.20577812 C39.4965686 100.01114735 36.49600548 88.81708785 33.48924828 77.62468338 C32.37935554 73.49114109 31.27153739 69.35704466 30.16418839 65.22282028 C29.6543355 63.32126837 29.14356215 61.41996294 28.63174057 59.51893997 C25.54528992 48.05430161 22.66219026 36.57119004 20 25 C13.4 25 6.8 25 0 25 C0 16.75 0 8.5 0 0 Z " fill="#FEA804" transform="translate(689,4)"/>
</svg>
